<?xml version="1.0" encoding="utf-8"?>
<!-- Generator: Adobe Illustrator 16.0.4, SVG Export Plug-In . SVG Version: 6.00 Build 0)  -->
<!DOCTYPE svg PUBLIC "-//W3C//DTD SVG 1.1//EN" "http://www.w3.org/Graphics/SVG/1.1/DTD/svg11.dtd">
<svg version="1.1" id="Layer_1" xmlns="http://www.w3.org/2000/svg" xmlns:xlink="http://www.w3.org/1999/xlink" x="0px" y="0px"
	 width="640px" height="640px" viewBox="0 0 640 640" enable-background="new 0 0 640 640" xml:space="preserve">
<g>
	<path fill-rule="evenodd" clip-rule="evenodd" d="M353.784,270.095c51.393-78.279,145.329-78.913,206.245-53.172
		c45.367,19.165,64.402,58.802,73.188,104.276c5.014,25.908,6.881,52.22,6.817,78.682c-0.181,74.977-0.368,149.958,0.237,224.936
		c0.101,12.564-3.307,16.045-15.816,15.723c-33.834-0.866-67.729-1-101.556,0.047c-13.804,0.424-16.258-4.357-16.156-16.971
		c0.551-68.641,0.325-137.289-0.033-205.93c-0.068-13.144-1.217-26.378-3.068-39.396c-5.273-37.053-26.807-57.229-61.354-58.377
		c-43.118-1.435-69.119,17.164-78.159,56.084c-5.053,21.757-5.324,43.99-5.443,66.123c-0.324,60.726-0.378,121.451,0.119,182.172
		c0.097,11.733-2.092,16.674-15.411,16.288c-34.885-0.999-69.824-0.707-104.736-0.115c-10.515,0.179-14.582-1.884-14.546-13.616
		c0.425-133.591,0.365-267.184,0.085-400.776c-0.02-9.757,1.755-13.82,12.779-13.591c34.902,0.728,69.834,0.628,104.743,0.043
		c10.104-0.172,12.75,3.267,12.248,12.753C353.248,238.936,353.784,252.662,353.784,270.095z"/>
	<path fill-rule="evenodd" clip-rule="evenodd" d="M10.842,426.756c0-66.518,0.33-133.039-0.3-199.55
		c-0.119-12.154,3.496-14.978,15.119-14.729c34.894,0.755,69.819,0.584,104.718,0.068c9.577-0.142,12.672,2.425,12.65,12.336
		c-0.305,134.087-0.318,268.181,0.022,402.273c0.026,10.604-3.282,13.457-13.541,13.296c-34.897-0.546-69.819-0.638-104.718,0.044
		c-11.149,0.214-14.262-3.157-14.185-14.187C11.08,559.793,10.842,493.273,10.842,426.756z"/>
	<path fill-rule="evenodd" clip-rule="evenodd" d="M76.071,153c-42.445-0.137-76.234-34.03-76.07-76.308
		C0.161,34.617,34.438,0.623,76.71,0.611c42.909-0.013,77.411,34.762,76.903,77.504C153.116,120.121,118.93,153.134,76.071,153z"/>
</g>
</svg>
